# xmcd
#
# Track frame offsets: 
#        150
#        13833
#        32600
#        51230
#        60760
#        78643
#        95505
#        112445
#        126045
#        142553
#        157283
#        172185
#        190810
#
# Disc length: 2734 seconds
#
# Revision: 10
# Processed by: cddbd v1.5.2PL0 Copyright (c) Steve Scherf et al.
# Submitted via: ExactAudioCopy v1.0b3
#
DISCID=b10aac0d
DTITLE=The Jon Spencer Blues Explosion - Acme
DYEAR=1998
DGENRE=Rock
TTITLE0=Calvin
TTITLE1=Magical Colors
TTITLE2=Do You Wanna Get Heavy?
TTITLE3=High Gear
TTITLE4=Talk About the Blues
TTITLE5=I Wanna Make It All Right
TTITLE6=Lovin' Machine
TTITLE7=Bernie
TTITLE8=Blue Green Olga
TTITLE9=Give Me a Chance
TTITLE10=Desperate
TTITLE11=Torture
TTITLE12=Attack
EXTD=
EXTT0=
EXTT1=
EXTT2=
EXTT3=
EXTT4=
EXTT5=
EXTT6=
EXTT7=
EXTT8=
EXTT9=
EXTT10=
EXTT11=
EXTT12=
PLAYORDER=
